<svg width="171" height="166" viewBox="0 0 171 166" fill="none" xmlns="http://www.w3.org/2000/svg">
<g filter="url(#filter0_d_167_181)">
<rect x="18" y="16" width="130" height="130" rx="65" fill="white"/>
<path d="M90.5833 78.833C92.3782 78.833 93.8333 77.3779 93.8333 75.583C93.8333 73.7881 92.3782 72.333 90.5833 72.333C88.7883 72.333 87.3333 73.7881 87.3333 75.583C87.3333 77.3779 88.7883 78.833 90.5833 78.833Z" fill="#323232"/>
<path d="M75.4165 78.833C77.2114 78.833 78.6665 77.3779 78.6665 75.583C78.6665 73.7881 77.2114 72.333 75.4165 72.333C73.6216 72.333 72.1665 73.7881 72.1665 75.583C72.1665 77.3779 73.6216 78.833 75.4165 78.833Z" fill="#323232"/>
<path d="M90.5833 78.833C92.3782 78.833 93.8333 77.3779 93.8333 75.583C93.8333 73.7881 92.3782 72.333 90.5833 72.333C88.7883 72.333 87.3333 73.7881 87.3333 75.583C87.3333 77.3779 88.7883 78.833 90.5833 78.833Z" fill="#323232"/>
<path d="M75.4165 78.833C77.2114 78.833 78.6665 77.3779 78.6665 75.583C78.6665 73.7881 77.2114 72.333 75.4165 72.333C73.6216 72.333 72.1665 73.7881 72.1665 75.583C72.1665 77.3779 73.6216 78.833 75.4165 78.833Z" fill="#323232"/>
<path d="M82.9785 59.333C71.0185 59.333 61.3335 69.0397 61.3335 80.9997C61.3335 92.9597 71.0185 102.666 82.9785 102.666C94.9602 102.666 104.667 92.9597 104.667 80.9997C104.667 69.0397 94.9602 59.333 82.9785 59.333ZM83.0002 98.333C73.4235 98.333 65.6668 90.5763 65.6668 80.9997C65.6668 71.423 73.4235 63.6663 83.0002 63.6663C92.5768 63.6663 100.333 71.423 100.333 80.9997C100.333 90.5763 92.5768 98.333 83.0002 98.333ZM83.0002 92.9163C88.0485 92.9163 92.3602 89.7747 94.0935 85.333H90.4752C88.9802 87.9113 86.2068 89.6663 83.0002 89.6663C79.7935 89.6663 77.0418 87.9113 75.5252 85.333H71.9068C73.6402 89.7747 77.9518 92.9163 83.0002 92.9163Z" fill="#323232"/>
<circle cx="140.5" cy="111.5" r="12.5" fill="#A89060"/>
<path d="M135 114.314V116.501H137.188L143.639 110.05L141.452 107.862L135 114.314ZM145.331 108.358C145.558 108.131 145.558 107.763 145.331 107.536L143.966 106.171C143.738 105.943 143.371 105.943 143.143 106.171L142.076 107.238L144.263 109.426L145.331 108.358V108.358Z" fill="white"/>
</g>
<defs>
<filter id="filter0_d_167_181" x="0" y="0" width="171" height="166" filterUnits="userSpaceOnUse" color-interpolation-filters="sRGB">
<feFlood flood-opacity="0" result="BackgroundImageFix"/>
<feColorMatrix in="SourceAlpha" type="matrix" values="0 0 0 0 0 0 0 0 0 0 0 0 0 0 0 0 0 0 127 0" result="hardAlpha"/>
<feOffset dy="2"/>
<feGaussianBlur stdDeviation="9"/>
<feColorMatrix type="matrix" values="0 0 0 0 0.160784 0 0 0 0 0.160784 0 0 0 0 0.160784 0 0 0 0.1 0"/>
<feBlend mode="normal" in2="BackgroundImageFix" result="effect1_dropShadow_167_181"/>
<feBlend mode="normal" in="SourceGraphic" in2="effect1_dropShadow_167_181" result="shape"/>
</filter>
</defs>
</svg>
