<svg width="150" height="150" viewBox="0 0 150 150" fill="none" xmlns="http://www.w3.org/2000/svg">
<g filter="url(#filter0_i_482_2471)">
<path d="M146.379 74.9999C148.427 74.9999 150.097 73.3395 149.996 71.2953C149.117 53.5207 141.935 36.59 129.671 23.5768C116.557 9.66232 98.6222 1.2771 79.5304 0.134266C60.4385 -1.00857 41.6304 5.17723 26.9487 17.4279C12.267 29.6786 2.81962 47.0696 0.536716 66.0479C-1.74619 85.0262 3.30766 104.159 14.6658 119.539C26.0238 134.918 42.829 145.383 61.6479 148.795C80.4668 152.207 99.8791 148.309 115.919 137.898C130.92 128.16 141.912 113.413 146.981 96.3534C147.564 94.3914 146.336 92.3828 144.346 91.8977C142.357 91.4126 140.36 92.6353 139.767 94.5942C135.153 109.819 125.295 122.974 111.879 131.682C97.4248 141.065 79.9308 144.577 62.9717 141.502C46.0126 138.427 30.8682 128.997 20.6326 115.137C10.397 101.278 5.84255 84.0353 7.89985 66.9326C9.95715 49.8298 18.4709 34.1575 31.7017 23.1175C44.9325 12.0775 61.8818 6.50296 79.087 7.53285C96.2921 8.56275 112.454 16.1193 124.272 28.6587C135.24 40.2965 141.698 55.4111 142.569 71.2954C142.682 73.3391 144.331 74.9999 146.379 74.9999Z" fill="#57A24B"/>
</g>
<g filter="url(#filter1_i_482_2471)">
<path d="M144.631 90.4477C146.613 90.8875 148.586 89.6381 148.928 87.6367C149.314 85.3794 149.596 83.1057 149.774 80.8226C149.931 78.7983 148.324 77.1044 146.294 77.0462V77.0462C144.265 76.9879 142.582 78.5876 142.414 80.611C142.263 82.4298 142.038 84.2417 141.74 86.0423C141.408 88.0456 142.648 90.0079 144.631 90.4477V90.4477Z" fill="#FF7474"/>
</g>
<defs>
<filter id="filter0_i_482_2471" x="0" y="0" width="150" height="151" filterUnits="userSpaceOnUse" color-interpolation-filters="sRGB">
<feFlood flood-opacity="0" result="BackgroundImageFix"/>
<feBlend mode="normal" in="SourceGraphic" in2="BackgroundImageFix" result="shape"/>
<feColorMatrix in="SourceAlpha" type="matrix" values="0 0 0 0 0 0 0 0 0 0 0 0 0 0 0 0 0 0 127 0" result="hardAlpha"/>
<feOffset dy="4"/>
<feGaussianBlur stdDeviation="0.5"/>
<feComposite in2="hardAlpha" operator="arithmetic" k2="-1" k3="1"/>
<feColorMatrix type="matrix" values="0 0 0 0 0 0 0 0 0 0 0 0 0 0 0 0 0 0 0.25 0"/>
<feBlend mode="normal" in2="shape" result="effect1_innerShadow_482_2471"/>
</filter>
<filter id="filter1_i_482_2471" x="141.686" y="77.0449" width="9.09814" height="15.4912" filterUnits="userSpaceOnUse" color-interpolation-filters="sRGB">
<feFlood flood-opacity="0" result="BackgroundImageFix"/>
<feBlend mode="normal" in="SourceGraphic" in2="BackgroundImageFix" result="shape"/>
<feColorMatrix in="SourceAlpha" type="matrix" values="0 0 0 0 0 0 0 0 0 0 0 0 0 0 0 0 0 0 127 0" result="hardAlpha"/>
<feOffset dx="1" dy="2"/>
<feGaussianBlur stdDeviation="3"/>
<feComposite in2="hardAlpha" operator="arithmetic" k2="-1" k3="1"/>
<feColorMatrix type="matrix" values="0 0 0 0 1 0 0 0 0 0.0791667 0 0 0 0 0.0791667 0 0 0 0.25 0"/>
<feBlend mode="normal" in2="shape" result="effect1_innerShadow_482_2471"/>
</filter>
</defs>
</svg>
